<svg xmlns="http://www.w3.org/2000/svg" width="32" height="32" viewBox="0 0 32 32">
  <rect width="32" height="32" rx="6" fill="#0c3547"/>
  <g transform="translate(4, 2) scale(0.07)">
    <path d="M166.101 248.056C169.189 263.149 165.232 284.587 164.542 287.254C163.273 292.153 157.428 306.223 148.934 313.002C125.552 331.637 84.3042 292.537 77.8692 287.155C57.405 270.046 24.97 232.097 19.764 223.921C-4.99684 185.009 -0.969946 153.505 2.86709 136.08C3.83634 131.702 13.5388 88.4212 58.604 74.2239C64.2597 72.443 98.4033 62.3681 126.821 81.8686C130.079 84.102 139.212 90.8121 146.406 102.884C157.787 121.991 160.905 148.871 148.934 169.739C145.497 175.731 139.432 186.308 128.09 188.846C111.683 192.506 102.95 162.38 88.2911 164.652C78.8984 166.108 70.4849 179.42 71.8638 191.394C73.5025 205.641 85.3933 210.806 87.2419 211.593C96.8545 215.706 108.895 204.608 128.09 205.847C143.079 206.821 150.893 213.246 155.889 219.927C161.135 226.942 162.824 232.048 166.111 248.066L166.101 248.056Z" fill="white"/>
    <path d="M156.698 90.7552C153.141 97.5735 158.917 102.64 161.255 108.8C165.711 120.567 166.201 129.432 166.331 142.871C166.431 153.458 165.292 153.615 164.113 171C161.924 203.203 165.402 209.5 167.95 212.855C171.717 217.823 179.111 223.786 186.405 222.546C196.088 220.903 203.082 207.001 203.012 195.292C202.913 179.275 189.623 173.175 193.17 160.158C194.729 154.412 199.155 148.843 202.393 149.257C206.63 149.798 208.668 160.571 209.158 166.219C209.697 172.407 208.678 175.841 207.929 181.971C206.41 194.417 206.05 200.684 207.929 206.204C208.458 207.748 212.695 219.722 220.849 220.745C228.773 221.739 236.766 211.95 239.914 203.783C245.65 188.927 237.706 173.342 231.301 160.778C224.256 146.954 211.396 142.596 213.464 135.335C214.044 133.288 215.213 132.737 221.458 126.254C227.713 119.77 230.751 116.454 231.92 114.742C237.826 106.074 235.557 89.6237 225.765 81.428C218.181 75.0721 212.335 75.141 206.75 75.5837C204.651 75.751 201.194 78.0631 188.943 82.0282C181.499 84.4485 177.462 82.2643 172.036 82.4709C162.414 82.8349 157.707 88.7973 156.688 90.765L156.698 90.7552Z" fill="white"/>
    <path d="M241.413 54.082C233.549 65.377 245.68 94.4703 246.11 106.966C247.668 151.88 252.445 146.901 251.076 172.423C250.146 189.631 247.479 201.241 254.793 210.903C258.44 215.714 265.884 221.775 273.408 219.748C281.332 217.613 284.42 207.833 284.99 206.033C287.388 198.437 284.83 191.324 282.511 184.358C278.235 171.538 273.269 168.852 274.658 162.683C275.847 157.389 280.963 152.873 286.239 152.509C293.093 152.037 299.039 158.669 300.717 164.896C302.596 171.892 298.029 174.519 296.171 188.785C295.142 196.656 294.392 203.101 297.83 209.132C301.647 215.832 308.342 217.987 309.82 218.42C317.514 220.673 325.079 217.662 328.436 215.32C346.462 202.746 336.929 143.959 318.094 101.2C315.616 95.5821 309.591 76.3669 293.693 59.1785C281.003 45.4534 272.929 44.6269 269.701 44.135C265.874 43.5643 249.787 41.2325 241.423 54.0525L241.413 54.082Z" fill="white"/>
  </g>
</svg>
