<svg xmlns="http://www.w3.org/2000/svg" width="1385" height="318" viewBox="0 0 1385 318" fill="none"><g clip-path="url(#clip0_1154_273)"><path d="M166.101 248.056C169.189 263.149 165.232 284.587 164.542 287.254C163.273 292.153 157.428 306.223 148.934 313.002C125.552 331.637 84.3042 292.537 77.8692 287.155C57.405 270.046 24.97 232.097 19.764 223.921C-4.99684 185.009 -0.969946 153.505 2.86709 136.08C3.83634 131.702 13.5388 88.4212 58.604 74.2239C64.2597 72.443 98.4033 62.3681 126.821 81.8686C130.079 84.102 139.212 90.8121 146.406 102.884C157.787 121.991 160.905 148.871 148.934 169.739C145.497 175.731 139.432 186.308 128.09 188.846C111.683 192.506 102.95 162.38 88.2911 164.652C78.8984 166.108 70.4849 179.42 71.8638 191.394C73.5025 205.641 85.3933 210.806 87.2419 211.593C96.8545 215.706 108.895 204.608 128.09 205.847C143.079 206.821 150.893 213.246 155.889 219.927C161.135 226.942 162.824 232.048 166.111 248.066L166.101 248.056Z" fill="white"></path><path d="M156.698 90.7552C153.141 97.5735 158.917 102.64 161.255 108.8C165.711 120.567 166.201 129.432 166.331 142.871C166.431 153.458 165.292 153.615 164.113 171C161.924 203.203 165.402 209.5 167.95 212.855C171.717 217.823 179.111 223.786 186.405 222.546C196.088 220.903 203.082 207.001 203.012 195.292C202.913 179.275 189.623 173.175 193.17 160.158C194.729 154.412 199.155 148.843 202.393 149.257C206.63 149.798 208.668 160.571 209.158 166.219C209.697 172.407 208.678 175.841 207.929 181.971C206.41 194.417 206.05 200.684 207.929 206.204C208.458 207.748 212.695 219.722 220.849 220.745C228.773 221.739 236.766 211.95 239.914 203.783C245.65 188.927 237.706 173.342 231.301 160.778C224.256 146.954 211.396 142.596 213.464 135.335C214.044 133.288 215.213 132.737 221.458 126.254C227.713 119.77 230.751 116.454 231.92 114.742C237.826 106.074 235.557 89.6237 225.765 81.428C218.181 75.0721 212.335 75.141 206.75 75.5837C204.651 75.751 201.194 78.0631 188.943 82.0282C181.499 84.4485 177.462 82.2643 172.036 82.4709C162.414 82.8349 157.707 88.7973 156.688 90.765L156.698 90.7552Z" fill="white"></path><path d="M241.413 54.082C233.549 65.377 245.68 94.4703 246.11 106.966C247.668 151.88 252.445 146.901 251.076 172.423C250.146 189.631 247.479 201.241 254.793 210.903C258.44 215.714 265.884 221.775 273.408 219.748C281.332 217.613 284.42 207.833 284.99 206.033C287.388 198.437 284.83 191.324 282.511 184.358C278.235 171.538 273.269 168.852 274.658 162.683C275.847 157.389 280.963 152.873 286.239 152.509C293.093 152.037 299.039 158.669 300.717 164.896C302.596 171.892 298.029 174.519 296.171 188.785C295.142 196.656 294.392 203.101 297.83 209.132C301.647 215.832 308.342 217.987 309.82 218.42C317.514 220.673 325.079 217.662 328.436 215.32C346.462 202.746 336.929 143.959 318.094 101.2C315.616 95.5821 309.591 76.3669 293.693 59.1785C281.003 45.4534 272.929 44.6269 269.701 44.135C265.874 43.5643 249.787 41.2325 241.423 54.0525L241.413 54.082Z" fill="white"></path><path d="M999.468 110.363C982.271 90.5473 944.72 95.9488 940.993 96.5292C936.696 97.1983 913.224 97.1688 901.593 115.735C895.688 125.16 898.036 129.086 895.698 145.546C893.5 161.003 889.093 173.567 885.046 183.17C879.48 202.021 891.541 215.746 896.177 219.829C903.842 226.569 964.884 246.758 986.148 232.521C1000.88 222.653 1005.13 202.326 1009.58 180.71C1014.45 157.087 1015.52 128.85 999.468 110.363ZM964.814 172.396C966.943 175.161 969.241 180.484 966.783 184.016C965.164 186.338 961.957 187.214 959.409 186.918C955.272 186.436 953.024 182.865 952.524 182.078C949.356 177.06 952.094 172.544 949.576 170.94C947.877 169.858 946.219 171.658 939.744 172.878C934.848 173.793 932.19 174.295 930.401 172.878C927.253 170.379 929.022 163.689 929.911 160.295C930.981 156.221 931.82 153.024 934.338 152.069C937.266 150.958 939.194 154.116 945.649 154.49C948.067 154.627 951.195 154.804 952.534 153.034C954.422 150.544 950.755 146.865 952.534 144.316C954.572 141.384 961.587 143.146 962.366 143.352C963.995 143.775 969.801 145.29 970.72 149.157C971.509 152.453 968.382 155.926 965.314 159.321C961.427 163.63 958.759 164.447 958.919 166.582C959.089 168.805 962.087 168.844 964.814 172.386V172.396Z" fill="white"></path><path d="M1020.95 117.271C1018.6 124.591 1019.85 120.252 1023.68 144.268C1024.98 152.405 1025.47 169.062 1021.27 188.474C1018.37 201.904 1010.39 208.053 1007.29 226.098C1005.98 233.693 1013.96 243.729 1017.89 245.628C1028.07 250.518 1050.17 253.745 1070.47 247.261C1083.58 243.079 1086.91 234.51 1084.88 221.395C1083 209.244 1072.8 204.275 1075.24 194.122C1076.79 187.667 1082.81 181.685 1087.29 182.364C1093.36 183.289 1096.64 196.503 1096.93 205.879C1097.34 219.27 1091.63 223.431 1092.12 235.041C1092.3 239.232 1100 249.563 1110.72 250.518C1121.32 251.462 1140.06 250.311 1143.69 246.326C1157.65 230.978 1146.85 202.563 1133.08 188.484C1120.72 175.851 1103.62 172.781 1104.65 166.848C1105.24 163.464 1111.04 163.011 1118.63 158.849C1121.05 157.521 1132.95 151.903 1135.52 138.129C1137.27 128.792 1137.94 113.689 1126.13 104.647C1119.18 99.3148 1110.61 89.9286 1086.33 90.6567C1079.02 90.8731 1058.03 95.4187 1044.65 100.181C1038.95 102.207 1023.11 110.511 1020.95 117.271Z" fill="white"></path><path d="M1154.28 125.27C1150.03 152.523 1158.29 159.509 1159.13 192.911C1159.83 220.529 1154.53 229.59 1162.6 239.193C1169.55 247.448 1182.14 251.059 1193.18 249.071C1195.79 248.599 1206.36 246.7 1213.1 237.324C1220.79 226.649 1219.89 211.33 1214.58 201.314C1209.22 191.19 1201.16 189.93 1200.93 181.607C1200.78 176.205 1203.97 169.77 1208.68 168.718C1213.76 167.576 1218.88 173.096 1221.23 177.061C1225.62 184.509 1221.75 189.054 1223.44 202.081C1224.29 208.604 1225.85 220.676 1234.89 227.859C1242.48 233.9 1251.31 233.28 1252.6 233.162C1253.39 233.093 1264.17 232.021 1269.95 224.061C1275.25 216.741 1274.06 206.735 1269.58 191.081C1263.21 168.796 1255.77 143.816 1232.68 115.647C1219.7 99.8165 1211.22 89.7908 1196.89 87.5967C1194.81 87.2819 1178.65 85.0682 1166.63 95.94C1163.28 98.9606 1157.38 105.602 1154.3 125.279L1154.28 125.27Z" fill="white"></path><path d="M1244.34 92.0806C1241.95 100.463 1249.02 106.022 1261.65 128.297C1269.79 142.642 1273.86 149.815 1276.86 159.713C1281.35 174.5 1279.81 181.368 1286.16 190.695C1287.76 193.056 1293.84 201.823 1303.89 205.089C1322.94 211.288 1343.17 193.479 1356.18 182.017C1368.69 171.008 1378.57 159.339 1382.61 150.012C1384.57 145.486 1387.83 131.623 1380.18 123.024C1373.74 115.772 1362.7 116.137 1355.88 118.321C1347.14 121.115 1338.23 129.242 1337.36 138.087C1337.03 141.442 1337.83 145.161 1335.54 150.012C1334.69 151.802 1333.21 154.951 1330.37 155.659C1326.05 156.741 1321.78 151.31 1321.26 150.641C1316.91 144.974 1317.43 137.703 1317.61 133.699C1318.2 120.958 1319.07 102.244 1311.84 90.3982C1304.93 79.0836 1291.81 75.9647 1287.83 75.0201C1284.81 74.3019 1271.29 71.4388 1257.77 79.1032C1252.2 82.2517 1246.17 85.6756 1244.34 92.0806Z" fill="white"></path><path d="M323.88 63.586C320.772 68.6333 321.921 74.7924 323.41 82.2109C325.828 94.2929 328.886 95.5228 336.89 113.597C341.956 125.049 344.154 134.366 346.113 142.68C350.15 159.819 351.628 162.594 351.079 180.441C350.669 193.655 351.449 202.894 359.642 207.626C366.167 211.394 383.044 213.067 390.109 208.846C402.169 201.654 394.086 178.71 383.274 163.912C377.898 156.563 375.57 153.375 372.362 143.94C370.704 139.059 371.353 133.314 373.312 130.165C378.158 122.373 391.717 126.102 396.504 124.636C401.62 123.071 408.295 117.768 408.215 111.058C408.085 101.485 399.751 97.0084 393.716 95.6015C384.803 93.5255 371.743 106.257 365.588 107.664C363.219 108.205 358.803 104.761 356.784 101.603C354.816 98.5236 357.624 91.0756 362.46 88.3404C367.666 85.3986 371.343 90.1311 377.109 87.3172C381.645 85.1035 385.182 79.3478 384.673 74.0545C384.543 72.7558 383.973 69.3319 378.997 64.8749C368.925 55.833 355.795 56.0003 348.271 56.2069C337.279 56.5021 328.097 56.748 323.9 63.5762L323.88 63.586Z" fill="white"></path><path d="M397.163 50.2555C396.144 51.2591 391.847 57.2312 390.608 60.419C389.159 64.1479 389.529 67.5816 389.729 69.2247C389.998 71.468 390.388 74.7836 392.736 77.8533C397.093 83.5598 404.397 83.4418 404.747 83.4221C409.723 83.2548 415.249 81.0214 417.038 78.7782C418.826 76.5349 420.475 73.8293 421.394 73.0028C422.254 72.2255 423.592 71.773 424.422 72.0091C427.19 72.8159 425.331 78.6896 424.222 82.576C423.662 84.5241 422.873 89.1778 421.094 95.0516C414.46 116.963 413.92 167.534 417.137 192.623C417.327 194.089 418.606 203.308 424.572 212.793C427.3 217.131 429.918 221.165 433.994 221.874C442.028 223.261 449.812 209.565 450.851 207.755C459.675 192.357 450.352 156.318 450.352 156.318C450.352 156.318 437.292 104.92 446.335 67.926C447.104 64.7776 448.283 61.9145 450.731 59.7795C455.348 55.7751 460.514 57.8019 470.736 56.5228C479.1 55.4701 485.485 54.6731 488.742 50.2161C493.468 43.7619 491.69 31.7487 483.136 27.2425C477.671 24.3598 465.52 20.8473 459.994 21.0933C451.881 21.4475 447.484 20.5915 433.865 25.2059C431.856 25.8848 419.226 32.9786 415.359 35.3989C407.105 40.5544 404.957 42.5419 397.153 50.2653L397.163 50.2555Z" fill="white"></path><path d="M454.888 67.8334C454.359 68.4729 452.24 71.218 451.701 77.8001C450.771 89.223 457.596 111.626 458.515 114.223C460.164 118.867 463.751 130.841 462.233 167.756C461.823 177.841 458.106 197.204 461.523 203.678C463.991 208.361 469.477 210.053 477.451 212.503C486.064 215.15 490.381 212.867 494.548 209.935C500.483 205.773 498.984 196.161 498.035 189.136C495.897 173.315 494.827 169.881 489.931 152.693C482.777 127.624 482.657 121.77 482.767 105.418C482.807 99.5537 488.882 84.3626 488.342 78.6463C487.563 70.3817 477.521 65.7574 476.392 65.2655C470.057 62.4516 459.984 61.6055 454.888 67.8334Z" fill="white"></path><path d="M501.393 51.3416C493.939 60.167 491.181 63.5122 496.507 85.1772C496.547 85.3445 507.769 117.33 505.62 138.612C503.172 162.874 503.152 197.418 512.195 203.636C520.459 209.323 533.968 208.015 538.335 201.915C541.642 197.3 538.655 191.397 529.811 158.811C526.134 145.253 524.276 137.529 528.103 134.096C530.451 131.99 534.668 131.734 537.196 133.525C541.283 136.408 539.664 143.728 539.464 151.914C539.424 153.527 539.034 184.5 555.382 195.588C556.641 196.444 565.754 202.446 572.998 199.032C577.974 196.69 579.383 191.18 583.23 148.46C583.23 148.46 583.75 142.636 583.23 106.508C583.13 99.778 582.95 93.5894 578.534 89.1423C573.778 84.3508 564.615 82.0977 558.579 86.4071C553.123 90.3032 552.014 98.2727 553.163 103.595C554.542 109.991 558.899 111.299 560.058 119.534C560.418 122.102 560.917 126.018 558.579 128.006C556.761 129.55 553.553 129.639 551.555 128.252C548.507 126.146 549.187 121.295 549.217 113.68C549.217 113.68 549.266 100.791 546.748 87.7747C546.399 85.9643 544.83 78.2015 540.593 69.2187C535.937 59.3405 529.052 44.7496 517.811 43.687C511.466 43.0868 505.121 46.9338 501.393 51.3416Z" fill="white"></path><path d="M635.839 154.841C642.104 150.129 650.728 151.84 661.839 154.212C674.489 156.907 689.408 155.294 693.795 159.436C702.798 167.956 699.53 186.237 689.488 210.313C682.983 225.897 677.217 229.882 672.691 233.168C657.393 244.266 630.463 227.501 612.817 212.516C601.026 202.51 594.062 196.597 590.774 186.04C585.318 168.527 596.999 160.774 596.04 133.088C595.351 113.381 589.095 107.576 594.391 100.63C602.615 89.8364 626.067 92.8175 638.817 96.8514C642.494 98.0124 681.524 110.449 687.29 132.684C688.998 139.296 684.382 142.789 679.536 145.504C675.908 147.541 667.015 146.941 652.646 142.238C640.845 138.371 634.87 136.472 630.933 138.145C622.15 141.864 620.041 158.068 622.38 169.659C626.057 187.87 642.784 204.98 653.316 202.441C658.911 201.094 663.418 194.039 662.199 189.208C661.44 186.178 658.652 184.928 644.433 177.234C633.531 171.331 631.043 169.826 630.284 166.835C629.184 162.496 632.342 157.517 635.879 154.861L635.839 154.841Z" fill="white"></path><path d="M877.002 175.083C877.442 183.112 871.517 192.813 870.627 193.974C868.988 196.119 862.553 201.825 855.009 203.409C834.235 207.778 809.644 200.212 792.877 186.978C778.219 175.408 765.039 154.569 762.031 149.502C747.742 125.387 758.464 94.6806 763.77 86.9178C765.099 84.9697 778.398 65.7348 815.59 67.9682C820.256 68.2437 848.344 70.2705 868.059 85.619C870.317 87.3802 876.603 92.5259 880.649 99.905C887.055 111.584 885.965 125.397 873.835 133.18C870.357 135.413 864.202 139.359 854.979 138.286C841.64 136.732 838.752 120.193 826.961 118.313C819.407 117.113 811.063 121.924 810.574 128.073C809.984 135.384 818.627 140.342 819.966 141.11C826.961 145.085 837.863 142.104 852.741 146.62C864.362 150.152 869.638 154.894 872.676 159.184C875.873 163.69 876.523 166.533 876.982 175.054L877.002 175.083Z" fill="white"></path></g><defs><clipPath id="clip0_1154_273"><rect width="1385" height="318" fill="white"></rect></clipPath></defs></svg>